<svg xmlns="http://www.w3.org/2000/svg" xmlns:xlink="http://www.w3.org/1999/xlink" width="24" height="24" viewBox="0 0 24 24"><defs><style>.a{fill:none;}.b{clip-path:url(#a);}</style><clipPath id="a"><rect width="7.578" height="12.119" transform="translate(0 0)"/></clipPath></defs><g transform="translate(24) rotate(90)"><path class="a" d="M24,0H0V24H24Z"/><g transform="translate(16 18) rotate(180)"><g class="b"><path d="M.436,5.026,5.027.435a1.5,1.5,0,0,1,2.114,0l0,0a1.5,1.5,0,0,1,0,2.116L3.616,6.08,7.168,9.644a1.5,1.5,0,0,1-1.022,2.472c-.04,0-.079,0-.118,0a1.513,1.513,0,0,1-1-.387L.435,7.142a1.5,1.5,0,0,1,0-2.116"/></g></g></g></svg>