<svg xmlns="http://www.w3.org/2000/svg" width="24" height="24" viewBox="0 0 24 24"><defs><style>.a{fill:none;}.b{fill:#fff;}.c{fill:#333;}</style></defs><path class="a" d="M24,0H0V24H24Z"/><path class="b" d="M12.011,20.4a1.494,1.494,0,0,0,1.005-.386l.1-.091c5.155-4.684,8.517-7.739,8.386-11.371a4.941,4.941,0,0,0-2.123-3.9,5.069,5.069,0,0,0-2.875-.9,5.491,5.491,0,0,0-4.122,1.915L12,6.109l-.38-.444A5.492,5.492,0,0,0,7.5,3.754a5.1,5.1,0,0,0-2.878.9A5,5,0,0,0,2.5,8.538c-.122,3.647,3.262,6.715,8.385,11.359L11,20a1.484,1.484,0,0,0,1.011.394Z" transform="translate(-0.007 -0.249)"/><path class="c" d="M4.342,4.24A5.8,5.8,0,0,1,12,5.34a5.784,5.784,0,0,1,7.66-1.1A5.472,5.472,0,0,1,22,8.53c.14,3.88-3.3,6.99-8.55,11.76l-.1.09a2,2,0,0,1-2.689-.01l-.11-.1C5.3,15.51,1.871,12.4,2,8.52A5.466,5.466,0,0,1,4.342,4.24ZM11.9,18.8l.1.1.1-.1c4.76-4.31,7.9-7.16,7.9-10.05a3.418,3.418,0,0,0-3.5-3.5,3.909,3.909,0,0,0-3.57,2.36h-1.87A3.885,3.885,0,0,0,7.5,5.25,3.418,3.418,0,0,0,4,8.75C4,11.64,7.141,14.49,11.9,18.8Z" transform="translate(-0.006 -0.249)"/></svg>