<svg xmlns="http://www.w3.org/2000/svg" width="32" height="32" viewBox="0 0 32 32"><defs><style>.a{fill:#8cc63f;}.b{fill:#fff;fill-rule:evenodd;}</style></defs><g transform="translate(143.438 -218.443)"><rect class="a" width="32" height="32" rx="6" transform="translate(-143.438 218.443)"/><g transform="translate(-136.468 225.413)"><path class="b" d="M-127.186,225.336a1.093,1.093,0,0,0-1.093,1.093,1.093,1.093,0,0,0,1.093,1.093h0a1.1,1.1,0,0,0,1.091-1.093A1.093,1.093,0,0,0-127.186,225.336Z" transform="translate(140.821 -222.065)"/><path class="b" d="M-126,222.419h-8.916a4.542,4.542,0,0,0-4.542,4.542v8.916a4.542,4.542,0,0,0,4.542,4.542H-126a4.542,4.542,0,0,0,4.542-4.542v-8.916A4.542,4.542,0,0,0-126,222.419Zm2.581,13.457A2.584,2.584,0,0,1-126,238.458h-8.916a2.584,2.584,0,0,1-2.582-2.582V226.96a2.585,2.585,0,0,1,2.582-2.582H-126a2.585,2.585,0,0,1,2.581,2.582Z" transform="translate(139.462 -222.419)"/><path class="b" d="M-130.935,226.311a4.635,4.635,0,0,0-4.636,4.635,4.635,4.635,0,0,0,4.636,4.635,4.64,4.64,0,0,0,4.635-4.635A4.635,4.635,0,0,0-130.935,226.311Zm2.676,4.635a2.676,2.676,0,0,1-2.676,2.676,2.677,2.677,0,0,1-2.677-2.676,2.678,2.678,0,0,1,2.677-2.677,2.68,2.68,0,0,1,2.676,2.676Z" transform="translate(139.935 -221.946)"/></g></g></svg>