<svg xmlns="http://www.w3.org/2000/svg" width="72" height="72" viewBox="0 0 72 72"><defs><style>.a,.b{fill:none;}.a{stroke:#f5bc2b;}.c{fill:#f5bc2b;}.d{stroke:none;}</style></defs><g transform="translate(-1571 -983)"><g class="a" transform="translate(1571 983)"><circle class="d" cx="36" cy="36" r="36"/><circle class="b" cx="36" cy="36" r="35.5"/></g><g transform="translate(1591 1003)"><path class="b" d="M0,0H32V32H0Z"/><path class="c" d="M27.88,14.773l-12-12A2.65,2.65,0,0,0,14,2H4.667A2.675,2.675,0,0,0,2,4.667V14a2.661,2.661,0,0,0,.787,1.893l12,12a2.65,2.65,0,0,0,1.88.773,2.607,2.607,0,0,0,1.88-.787l9.333-9.333a2.607,2.607,0,0,0,.787-1.88A2.693,2.693,0,0,0,27.88,14.773ZM6.667,8.667a2,2,0,1,1,2-2A2,2,0,0,1,6.667,8.667Z" transform="translate(0.667 0.667)"/></g></g></svg>