<svg xmlns="http://www.w3.org/2000/svg" width="72" height="72" viewBox="0 0 72 72"><defs><style>.a,.b{fill:none;}.a{stroke:#f47f22;}.c{fill:#f47f22;}.d{stroke:none;}</style></defs><g transform="translate(-1571 -983)"><g class="a" transform="translate(1571 983)"><circle class="d" cx="36" cy="36" r="36"/><circle class="b" cx="36" cy="36" r="35.5"/></g><g transform="translate(1591 1003)"><path class="b" d="M0,0H32V32H0Z"/><path class="c" d="M25.667,9.333H22.333V6.667A2.675,2.675,0,0,0,19.667,4h-16A2.675,2.675,0,0,0,1,6.667v12a2.675,2.675,0,0,0,2.667,2.667,4,4,0,1,0,8,0h8a4,4,0,0,0,8,0H29A1.337,1.337,0,0,0,30.333,20V15.56a2.683,2.683,0,0,0-.533-1.6L26.733,9.867a1.352,1.352,0,0,0-1.067-.533Zm-18,13.333A1.333,1.333,0,1,1,9,21.333,1.337,1.337,0,0,1,7.667,22.667Zm18-11.333,2.613,3.333H22.333V11.333Zm-2,11.333A1.333,1.333,0,1,1,25,21.333,1.337,1.337,0,0,1,23.667,22.667Z" transform="translate(0.333 1.333)"/></g></g></svg>