<svg xmlns="http://www.w3.org/2000/svg" width="32" height="32" viewBox="0 0 32 32"><defs><style>.a{fill:#8cc63f;}.b{fill:#fff;fill-rule:evenodd;}</style></defs><g transform="translate(191.438 -218.443)"><rect class="a" width="32" height="32" rx="6" transform="translate(-191.438 218.443)"/><path class="b" d="M-172.272,226.787c.005.144.008.288.008.433A10.538,10.538,0,0,1-182.8,237.757a10.53,10.53,0,0,1-5.631-1.631h0A7.1,7.1,0,0,0-183,234.574a3.644,3.644,0,0,1-3.4-2.582,3.386,3.386,0,0,0,1.631-.068,3.514,3.514,0,0,1-2.922-3.672,3.787,3.787,0,0,0,1.6.475c-2.821-2.48-1.054-4.895-1.054-4.895a11.137,11.137,0,0,0,7.59,3.836,3.7,3.7,0,0,1,2.76-4.441,3.7,3.7,0,0,1,3.54,1.075q.282-.079.542-.167a12.619,12.619,0,0,0,1.795-.748,3.93,3.93,0,0,1-1.606,2.053h0a8.556,8.556,0,0,0,2.093-.543,8.293,8.293,0,0,1-1.835,1.89Z" transform="translate(3.751 4.172)"/></g></svg>