<svg xmlns="http://www.w3.org/2000/svg" xmlns:xlink="http://www.w3.org/1999/xlink" width="24" height="24" viewBox="0 0 24 24"><defs><style>.a{fill:none;}.b{clip-path:url(#a);}.c{fill:#f5f5f5;}.d{fill:#ff4b55;}.e{fill:#41479b;}</style><clipPath id="a"><rect class="a" width="24" height="24"/></clipPath></defs><g class="b"><path class="c" d="M23.98,11.38v1.24c0,.1-.01.2-.02.3a11.309,11.309,0,0,1-.28,1.85,11.592,11.592,0,0,1-.6,1.839,11.189,11.189,0,0,1-.97,1.851,11.377,11.377,0,0,1-1.45,1.85,11.991,11.991,0,0,1-17.32,0,11.377,11.377,0,0,1-1.45-1.85,11.189,11.189,0,0,1-.97-1.851,11.592,11.592,0,0,1-.6-1.839,11.309,11.309,0,0,1-.28-1.85C.01,12.609,0,12.31,0,12s.01-.61.04-.92A11.309,11.309,0,0,1,.32,9.23a11.753,11.753,0,0,1,.6-1.85c.1-.24.21-.47.32-.7a1.29,1.29,0,0,1,.09-.16,7.3,7.3,0,0,1,.56-.98A11.377,11.377,0,0,1,3.34,3.69,11.855,11.855,0,0,1,5.61,1.84c.19-.12.38-.24.58-.34a4.771,4.771,0,0,1,.44-.24A11.959,11.959,0,0,1,12,0h.91V.04a11.872,11.872,0,0,1,5.49,1.8,12.593,12.593,0,0,1,2.26,1.85,11.377,11.377,0,0,1,1.45,1.85,11.534,11.534,0,0,1,.97,1.84,11.753,11.753,0,0,1,.6,1.85,11.309,11.309,0,0,1,.28,1.85,3,3,0,0,1,.02.3"/><path class="d" d="M18.4,1.84H5.61c.19-.12.38-.24.58-.34a4.771,4.771,0,0,1,.44-.24A11.959,11.959,0,0,1,12,0h.91V.04a11.872,11.872,0,0,1,5.49,1.8"/><path class="d" d="M23.68,9.23H.32a11.753,11.753,0,0,1,.6-1.85H23.08a11.753,11.753,0,0,1,.6,1.85"/><path class="d" d="M22.11,5.54H1.89A11.377,11.377,0,0,1,3.34,3.69H20.66a11.377,11.377,0,0,1,1.45,1.85"/><path class="d" d="M24,12c0,.21-.01.41-.02.62,0,.1-.01.2-.02.3H.04C.01,12.609,0,12.31,0,12s.01-.61.04-.92H23.96a3,3,0,0,1,.02.3c.01.21.02.41.02.62"/><path class="d" d="M22.11,18.46a11.377,11.377,0,0,1-1.45,1.85H3.34a11.377,11.377,0,0,1-1.45-1.85Z"/><path class="d" d="M18.41,22.15a12.024,12.024,0,0,1-12.82,0Z"/><path class="d" d="M23.68,14.77a11.637,11.637,0,0,1-.6,1.84H.92a11.637,11.637,0,0,1-.6-1.84Z"/><path class="e" d="M12.91,0V12.92H.04C.01,12.609,0,12.31,0,12s.01-.61.04-.92A11.337,11.337,0,0,1,.32,9.229,11.741,11.741,0,0,1,.92,7.38c.1-.24.21-.47.32-.7a1.29,1.29,0,0,1,.09-.16,7.3,7.3,0,0,1,.56-.98A11.377,11.377,0,0,1,3.34,3.69,11.817,11.817,0,0,1,5.61,1.84c.19-.12.38-.24.58-.34a4.771,4.771,0,0,1,.44-.24A11.959,11.959,0,0,1,12,0Z"/><path class="c" d="M2.09,6.6l-.25.18.09.3a.042.042,0,0,1-.06.05l-.26-.18-.26.18a.042.042,0,0,1-.06-.05l.09-.3-.14-.1a1.29,1.29,0,0,1,.09-.16h.14l.1-.3a.042.042,0,0,1,.081,0l.1.3h.31c.05,0,.06.05.03.08"/><path class="c" d="M1.65,8.756l.1.3.314,0a.042.042,0,0,1,.025.076l-.253.188.1.3a.042.042,0,0,1-.065.047L1.61,9.485l-.256.183a.042.042,0,0,1-.065-.047l.095-.3-.253-.188a.042.042,0,0,1,.025-.076l.314,0,.1-.3a.043.043,0,0,1,.081,0"/><path class="c" d="M1.65,11.066l.1.3.314,0a.042.042,0,0,1,.025.076l-.253.187.1.3a.042.042,0,0,1-.065.047L1.61,11.8l-.256.182a.042.042,0,0,1-.065-.047l.095-.3-.253-.187a.042.042,0,0,1,.025-.076l.314,0,.1-.3a.043.043,0,0,1,.081,0"/><path class="c" d="M2.862,4.906l.1.3.314,0a.042.042,0,0,1,.024.076l-.252.187.095.3a.043.043,0,0,1-.066.048l-.256-.184-.255.184A.043.043,0,0,1,2.5,5.771l.094-.3-.253-.187a.042.042,0,0,1,.025-.076l.315,0,.1-.3a.043.043,0,0,1,.081,0"/><path class="c" d="M2.862,7.531l.1.3.314,0a.042.042,0,0,1,.024.076L3.048,8.1l.095.3a.043.043,0,0,1-.066.048L2.821,8.26l-.255.183A.043.043,0,0,1,2.5,8.4L2.6,8.1l-.253-.187a.042.042,0,0,1,.025-.076l.315,0,.1-.3a.043.043,0,0,1,.081,0"/><path class="c" d="M2.862,9.888l.1.3.314,0a.042.042,0,0,1,.024.076l-.252.187.095.3a.043.043,0,0,1-.066.048l-.256-.183-.255.183a.043.043,0,0,1-.065-.048l.094-.3-.253-.187a.042.042,0,0,1,.025-.076l.315,0,.1-.3a.043.043,0,0,1,.081,0"/><path class="c" d="M4.073,3.455l.1.3.314,0a.042.042,0,0,1,.025.076l-.253.187.1.3a.043.043,0,0,1-.065.048l-.256-.183-.256.183a.043.043,0,0,1-.065-.048l.1-.3-.253-.187a.042.042,0,0,1,.025-.076l.314,0,.1-.3a.042.042,0,0,1,.08,0"/><path class="c" d="M4.073,6.218l.1.3.314,0a.042.042,0,0,1,.025.076l-.253.187.1.3a.042.042,0,0,1-.065.047l-.256-.183-.256.183a.042.042,0,0,1-.065-.047l.1-.3-.253-.187a.042.042,0,0,1,.025-.076l.314,0,.1-.3a.042.042,0,0,1,.08,0"/><path class="c" d="M4.073,8.756l.1.3.314,0a.042.042,0,0,1,.025.076l-.253.188.1.3a.042.042,0,0,1-.065.047l-.256-.183-.256.183a.042.042,0,0,1-.065-.047l.1-.3-.253-.188a.042.042,0,0,1,.025-.076l.314,0,.1-.3a.042.042,0,0,1,.08,0"/><path class="c" d="M4.073,11.066l.1.3.314,0a.042.042,0,0,1,.025.076l-.253.187.1.3a.042.042,0,0,1-.065.047L4.033,11.8l-.256.182a.042.042,0,0,1-.065-.047l.1-.3-.253-.187a.042.042,0,0,1,.025-.076l.314,0,.1-.3a.042.042,0,0,1,.08,0"/><path class="c" d="M5.284,2.144l.1.3.314,0a.042.042,0,0,1,.025.076l-.253.187.1.3a.042.042,0,0,1-.065.047l-.256-.183-.256.183a.042.042,0,0,1-.065-.047l.1-.3-.253-.187a.042.042,0,0,1,.024-.076l.315,0,.1-.3a.043.043,0,0,1,.081,0"/><path class="c" d="M5.284,4.906l.1.3.314,0a.042.042,0,0,1,.025.076l-.253.187.1.3a.043.043,0,0,1-.065.048l-.256-.184-.256.184a.043.043,0,0,1-.065-.048l.1-.3-.253-.187a.042.042,0,0,1,.024-.076l.315,0,.1-.3a.043.043,0,0,1,.081,0"/><path class="c" d="M5.284,7.531l.1.3.314,0a.042.042,0,0,1,.025.076L5.47,8.1l.1.3a.043.043,0,0,1-.065.048L5.244,8.26l-.256.183A.043.043,0,0,1,4.923,8.4l.1-.3-.253-.187a.042.042,0,0,1,.024-.076l.315,0,.1-.3a.043.043,0,0,1,.081,0"/><path class="c" d="M5.284,9.888l.1.3.314,0a.042.042,0,0,1,.025.076l-.253.187.1.3A.043.043,0,0,1,5.5,10.8l-.256-.183-.256.183a.043.043,0,0,1-.065-.048l.1-.3-.253-.187a.042.042,0,0,1,.024-.076l.315,0,.1-.3a.043.043,0,0,1,.081,0"/><path class="c" d="M6.93,1.34l-.25.19.1.3v.01a.048.048,0,0,1-.07.04l-.05-.04-.2-.15-.21.15-.05.04a.048.048,0,0,1-.07-.04V1.83l.1-.3L6.19,1.5a4.771,4.771,0,0,1,.44-.24l.28.01a.037.037,0,0,1,.02.07"/><path class="c" d="M6.5,3.455l.1.3.314,0a.042.042,0,0,1,.024.076l-.252.187.094.3a.043.043,0,0,1-.065.048l-.256-.183L6.2,4.367a.042.042,0,0,1-.065-.048l.093-.3-.252-.187A.042.042,0,0,1,6,3.756l.315,0,.1-.3a.043.043,0,0,1,.082,0"/><path class="c" d="M6.5,6.218l.1.3.314,0a.042.042,0,0,1,.024.076l-.252.187.094.3a.042.042,0,0,1-.065.047l-.256-.183L6.2,7.13a.042.042,0,0,1-.065-.047l.093-.3-.252-.187A.042.042,0,0,1,6,6.519l.315,0,.1-.3a.043.043,0,0,1,.082,0"/><path class="c" d="M6.5,8.756l.1.3.314,0a.042.042,0,0,1,.024.076l-.252.188.094.3a.042.042,0,0,1-.065.047l-.256-.183L6.2,9.668a.042.042,0,0,1-.065-.047l.093-.3-.252-.188A.042.042,0,0,1,6,9.057l.315,0,.1-.3a.043.043,0,0,1,.082,0"/><path class="c" d="M6.5,11.066l.1.3.314,0a.042.042,0,0,1,.024.076l-.252.187.094.3a.042.042,0,0,1-.065.047L6.454,11.8l-.254.182a.042.042,0,0,1-.065-.047l.093-.3-.252-.187A.042.042,0,0,1,6,11.367l.315,0,.1-.3a.043.043,0,0,1,.082,0"/><path class="c" d="M7.706,2.144l.1.3.314,0a.042.042,0,0,1,.025.076l-.253.187.095.3a.042.042,0,0,1-.065.047l-.256-.183-.256.183a.042.042,0,0,1-.065-.047l.1-.3-.253-.187a.042.042,0,0,1,.024-.076l.315,0,.1-.3a.043.043,0,0,1,.081,0"/><path class="c" d="M7.706,4.906l.1.3.314,0a.042.042,0,0,1,.025.076l-.253.187.095.3a.043.043,0,0,1-.065.048l-.256-.184-.256.184a.043.043,0,0,1-.065-.048l.1-.3-.253-.187a.042.042,0,0,1,.024-.076l.315,0,.1-.3a.043.043,0,0,1,.081,0"/><path class="c" d="M7.706,7.531l.1.3.314,0a.042.042,0,0,1,.025.076L7.892,8.1l.095.3a.043.043,0,0,1-.065.048L7.666,8.26l-.256.183A.043.043,0,0,1,7.345,8.4l.1-.3-.253-.187a.042.042,0,0,1,.024-.076l.315,0,.1-.3a.043.043,0,0,1,.081,0"/><path class="c" d="M7.706,9.888l.1.3.314,0a.042.042,0,0,1,.025.076l-.253.187.095.3a.043.043,0,0,1-.065.048l-.256-.183L7.41,10.8a.043.043,0,0,1-.065-.048l.1-.3-.253-.187a.042.042,0,0,1,.024-.076l.315,0,.1-.3a.043.043,0,0,1,.081,0"/><path class="c" d="M8.918.964l.1.3.315,0a.043.043,0,0,1,.024.077L9.1,1.529l.094.3a.042.042,0,0,1-.065.047l-.256-.183-.255.183a.042.042,0,0,1-.065-.047l.094-.3L8.4,1.342a.043.043,0,0,1,.025-.077l.315,0,.1-.3a.043.043,0,0,1,.081,0"/><path class="c" d="M8.918,3.455l.1.3.315,0a.042.042,0,0,1,.024.076L9.1,4.019l.094.3a.042.042,0,0,1-.065.048l-.256-.183-.255.183a.042.042,0,0,1-.065-.048l.094-.3L8.4,3.832a.042.042,0,0,1,.025-.076l.315,0,.1-.3a.043.043,0,0,1,.081,0"/><path class="c" d="M8.918,6.218l.1.3.315,0a.042.042,0,0,1,.024.076L9.1,6.782l.094.3a.042.042,0,0,1-.065.047l-.256-.183-.255.183a.042.042,0,0,1-.065-.047l.094-.3L8.4,6.595a.042.042,0,0,1,.025-.076l.315,0,.1-.3a.043.043,0,0,1,.081,0"/><path class="c" d="M8.918,8.756l.1.3.315,0a.042.042,0,0,1,.024.076L9.1,9.321l.094.3a.042.042,0,0,1-.065.047l-.256-.183-.255.183a.042.042,0,0,1-.065-.047l.094-.3L8.4,9.133a.042.042,0,0,1,.025-.076l.315,0,.1-.3a.043.043,0,0,1,.081,0"/><path class="c" d="M8.918,11.066l.1.3.315,0a.042.042,0,0,1,.024.076L9.1,11.63l.094.3a.042.042,0,0,1-.065.047L8.877,11.8l-.255.182a.042.042,0,0,1-.065-.047l.094-.3L8.4,11.443a.042.042,0,0,1,.025-.076l.315,0,.1-.3a.043.043,0,0,1,.081,0"/><path class="c" d="M10.129,2.144l.1.3.314,0a.042.042,0,0,1,.025.076l-.253.187.1.3a.042.042,0,0,1-.065.047l-.256-.183-.256.183a.042.042,0,0,1-.065-.047l.1-.3L9.61,2.521a.042.042,0,0,1,.025-.076l.314,0,.1-.3a.043.043,0,0,1,.081,0"/><path class="c" d="M10.129,4.906l.1.3.314,0a.042.042,0,0,1,.025.076l-.253.187.1.3a.043.043,0,0,1-.065.048l-.256-.184-.256.184a.043.043,0,0,1-.065-.048l.1-.3L9.61,5.284a.042.042,0,0,1,.025-.076l.314,0,.1-.3a.043.043,0,0,1,.081,0"/><path class="c" d="M10.129,7.531l.1.3.314,0a.042.042,0,0,1,.025.076l-.253.187.1.3a.043.043,0,0,1-.065.048l-.256-.183-.256.183A.043.043,0,0,1,9.768,8.4l.1-.3L9.61,7.908a.042.042,0,0,1,.025-.076l.314,0,.1-.3a.043.043,0,0,1,.081,0"/><path class="c" d="M10.129,9.888l.1.3.314,0a.042.042,0,0,1,.025.076l-.253.187.1.3a.043.043,0,0,1-.065.048l-.256-.183-.256.183a.043.043,0,0,1-.065-.048l.1-.3-.253-.187a.042.042,0,0,1,.025-.076l.314,0,.1-.3a.043.043,0,0,1,.081,0"/><path class="c" d="M11.34.964l.1.3.314,0a.042.042,0,0,1,.024.077l-.252.187.1.3a.043.043,0,0,1-.066.047L11.3,1.693l-.255.183a.042.042,0,0,1-.065-.047l.094-.3-.253-.187a.043.043,0,0,1,.025-.077l.315,0,.1-.3a.043.043,0,0,1,.081,0"/><path class="c" d="M11.34,3.455l.1.3.314,0a.042.042,0,0,1,.024.076l-.252.187.1.3a.043.043,0,0,1-.066.048L11.3,4.184l-.255.183a.043.043,0,0,1-.065-.048l.094-.3-.253-.187a.042.042,0,0,1,.025-.076l.315,0,.1-.3a.043.043,0,0,1,.081,0"/><path class="c" d="M11.34,6.218l.1.3.314,0a.042.042,0,0,1,.024.076l-.252.187.1.3a.043.043,0,0,1-.066.047L11.3,6.947l-.255.183a.042.042,0,0,1-.065-.047l.094-.3-.253-.187a.042.042,0,0,1,.025-.076l.315,0,.1-.3a.043.043,0,0,1,.081,0"/><path class="c" d="M11.34,8.756l.1.3.314,0a.042.042,0,0,1,.024.076l-.252.188.1.3a.043.043,0,0,1-.066.047L11.3,9.485l-.255.183a.042.042,0,0,1-.065-.047l.094-.3-.253-.188a.042.042,0,0,1,.025-.076l.315,0,.1-.3a.043.043,0,0,1,.081,0"/><path class="c" d="M11.34,11.066l.1.3.314,0a.042.042,0,0,1,.024.076l-.252.187.1.3a.043.043,0,0,1-.066.047L11.3,11.8l-.255.182a.042.042,0,0,1-.065-.047l.094-.3-.253-.187a.042.042,0,0,1,.025-.076l.315,0,.1-.3a.043.043,0,0,1,.081,0"/></g></svg>